<svg width="136" height="24" viewBox="0 0 136 24" fill="none" xmlns="http://www.w3.org/2000/svg">
<g filter="url(#filter0_d_333_463)">
<path d="M16.978 2.364L12.496 15H8.644L4.162 2.364H7.438L10.57 11.904L13.72 2.364H16.978ZM21.3424 4.83V7.386H25.4644V9.762H21.3424V12.534H26.0044V15H18.2644V2.364H26.0044V4.83H21.3424ZM39.3067 15H36.2287L31.0807 7.206V15H28.0027V2.364H31.0807L36.2287 10.194V2.364H39.3067V15ZM41.0159 8.664C41.0159 7.416 41.2859 6.306 41.8259 5.334C42.3659 4.35 43.1159 3.588 44.0759 3.048C45.0479 2.496 46.1459 2.22 47.3699 2.22C48.8699 2.22 50.1539 2.616 51.2219 3.408C52.2899 4.2 53.0039 5.28 53.3639 6.648H49.9799C49.7279 6.12 49.3679 5.718 48.8999 5.442C48.4439 5.166 47.9219 5.028 47.3339 5.028C46.3859 5.028 45.6179 5.358 45.0299 6.018C44.4419 6.678 44.1479 7.56 44.1479 8.664C44.1479 9.768 44.4419 10.65 45.0299 11.31C45.6179 11.97 46.3859 12.3 47.3339 12.3C47.9219 12.3 48.4439 12.162 48.8999 11.886C49.3679 11.61 49.7279 11.208 49.9799 10.68H53.3639C53.0039 12.048 52.2899 13.128 51.2219 13.92C50.1539 14.7 48.8699 15.09 47.3699 15.09C46.1459 15.09 45.0479 14.82 44.0759 14.28C43.1159 13.728 42.3659 12.966 41.8259 11.994C41.2859 11.022 41.0159 9.912 41.0159 8.664ZM58.3268 4.83V7.386H62.4488V9.762H58.3268V12.534H62.9888V15H55.2488V2.364H62.9888V4.83H58.3268ZM73.3735 15.126C72.4495 15.126 71.6215 14.976 70.8895 14.676C70.1575 14.376 69.5695 13.932 69.1255 13.344C68.6935 12.756 68.4655 12.048 68.4415 11.22H71.7175C71.7655 11.688 71.9275 12.048 72.2035 12.3C72.4795 12.54 72.8395 12.66 73.2835 12.66C73.7395 12.66 74.0995 12.558 74.3635 12.354C74.6275 12.138 74.7595 11.844 74.7595 11.472C74.7595 11.16 74.6515 10.902 74.4355 10.698C74.2315 10.494 73.9735 10.326 73.6615 10.194C73.3615 10.062 72.9295 9.912 72.3655 9.744C71.5495 9.492 70.8835 9.24 70.3675 8.988C69.8515 8.736 69.4075 8.364 69.0355 7.872C68.6635 7.38 68.4775 6.738 68.4775 5.946C68.4775 4.77 68.9035 3.852 69.7555 3.192C70.6075 2.52 71.7175 2.184 73.0855 2.184C74.4775 2.184 75.5995 2.52 76.4515 3.192C77.3035 3.852 77.7595 4.776 77.8195 5.964H74.4895C74.4655 5.556 74.3155 5.238 74.0395 5.01C73.7635 4.77 73.4095 4.65 72.9775 4.65C72.6055 4.65 72.3055 4.752 72.0775 4.956C71.8495 5.148 71.7355 5.43 71.7355 5.802C71.7355 6.21 71.9275 6.528 72.3115 6.756C72.6955 6.984 73.2955 7.23 74.1115 7.494C74.9275 7.77 75.5875 8.034 76.0915 8.286C76.6075 8.538 77.0515 8.904 77.4235 9.384C77.7955 9.864 77.9815 10.482 77.9815 11.238C77.9815 11.958 77.7955 12.612 77.4235 13.2C77.0635 13.788 76.5355 14.256 75.8395 14.604C75.1435 14.952 74.3215 15.126 73.3735 15.126ZM85.4738 12.39V15H83.9078C82.7918 15 81.9218 14.73 81.2978 14.19C80.6738 13.638 80.3618 12.744 80.3618 11.508V7.512H79.1378V4.956H80.3618V2.508H83.4398V4.956H85.4558V7.512H83.4398V11.544C83.4398 11.844 83.5118 12.06 83.6558 12.192C83.7998 12.324 84.0398 12.39 84.3758 12.39H85.4738ZM97.1063 4.956V15H94.0283V13.632C93.7163 14.076 93.2903 14.436 92.7503 14.712C92.2223 14.976 91.6343 15.108 90.9863 15.108C90.2183 15.108 89.5403 14.94 88.9523 14.604C88.3643 14.256 87.9083 13.758 87.5843 13.11C87.2603 12.462 87.0983 11.7 87.0983 10.824V4.956H90.1583V10.41C90.1583 11.082 90.3323 11.604 90.6803 11.976C91.0283 12.348 91.4963 12.534 92.0843 12.534C92.6843 12.534 93.1583 12.348 93.5063 11.976C93.8543 11.604 94.0283 11.082 94.0283 10.41V4.956H97.1063ZM98.7052 9.96C98.7052 8.928 98.8972 8.022 99.2812 7.242C99.6772 6.462 100.211 5.862 100.883 5.442C101.555 5.022 102.305 4.812 103.133 4.812C103.793 4.812 104.393 4.95 104.933 5.226C105.485 5.502 105.917 5.874 106.229 6.342V1.68H109.307V15H106.229V13.56C105.941 14.04 105.527 14.424 104.987 14.712C104.459 15 103.841 15.144 103.133 15.144C102.305 15.144 101.555 14.934 100.883 14.514C100.211 14.082 99.6772 13.476 99.2812 12.696C98.8972 11.904 98.7052 10.992 98.7052 9.96ZM106.229 9.978C106.229 9.21 106.013 8.604 105.581 8.16C105.161 7.716 104.645 7.494 104.033 7.494C103.421 7.494 102.899 7.716 102.467 8.16C102.047 8.592 101.837 9.192 101.837 9.96C101.837 10.728 102.047 11.34 102.467 11.796C102.899 12.24 103.421 12.462 104.033 12.462C104.645 12.462 105.161 12.24 105.581 11.796C106.013 11.352 106.229 10.746 106.229 9.978ZM113.082 3.912C112.542 3.912 112.098 3.756 111.75 3.444C111.414 3.12 111.246 2.724 111.246 2.256C111.246 1.776 111.414 1.38 111.75 1.068C112.098 0.743999 112.542 0.581999 113.082 0.581999C113.61 0.581999 114.042 0.743999 114.378 1.068C114.726 1.38 114.9 1.776 114.9 2.256C114.9 2.724 114.726 3.12 114.378 3.444C114.042 3.756 113.61 3.912 113.082 3.912ZM114.612 4.956V15H111.534V4.956H114.612ZM121.415 15.144C120.431 15.144 119.543 14.934 118.751 14.514C117.971 14.094 117.353 13.494 116.897 12.714C116.453 11.934 116.231 11.022 116.231 9.978C116.231 8.946 116.459 8.04 116.915 7.26C117.371 6.468 117.995 5.862 118.787 5.442C119.579 5.022 120.467 4.812 121.451 4.812C122.435 4.812 123.323 5.022 124.115 5.442C124.907 5.862 125.531 6.468 125.987 7.26C126.443 8.04 126.671 8.946 126.671 9.978C126.671 11.01 126.437 11.922 125.969 12.714C125.513 13.494 124.883 14.094 124.079 14.514C123.287 14.934 122.399 15.144 121.415 15.144ZM121.415 12.48C122.003 12.48 122.501 12.264 122.909 11.832C123.329 11.4 123.539 10.782 123.539 9.978C123.539 9.174 123.335 8.556 122.927 8.124C122.531 7.692 122.039 7.476 121.451 7.476C120.851 7.476 120.353 7.692 119.957 8.124C119.561 8.544 119.363 9.162 119.363 9.978C119.363 10.782 119.555 11.4 119.939 11.832C120.335 12.264 120.827 12.48 121.415 12.48Z" fill="#F8F9FA"/>
<path d="M129.744 15.144C129.204 15.144 128.76 14.988 128.412 14.676C128.076 14.352 127.908 13.956 127.908 13.488C127.908 13.008 128.076 12.606 128.412 12.282C128.76 11.958 129.204 11.796 129.744 11.796C130.272 11.796 130.704 11.958 131.04 12.282C131.388 12.606 131.562 13.008 131.562 13.488C131.562 13.956 131.388 14.352 131.04 14.676C130.704 14.988 130.272 15.144 129.744 15.144Z" fill="#DDBEA9"/>
</g>
<defs>
<filter id="filter0_d_333_463" x="0.162109" y="0.582031" width="135.399" height="22.562" filterUnits="userSpaceOnUse" color-interpolation-filters="sRGB">
<feFlood flood-opacity="0" result="BackgroundImageFix"/>
<feColorMatrix in="SourceAlpha" type="matrix" values="0 0 0 0 0 0 0 0 0 0 0 0 0 0 0 0 0 0 127 0" result="hardAlpha"/>
<feOffset dy="4"/>
<feGaussianBlur stdDeviation="2"/>
<feComposite in2="hardAlpha" operator="out"/>
<feColorMatrix type="matrix" values="0 0 0 0 0 0 0 0 0 0 0 0 0 0 0 0 0 0 0.25 0"/>
<feBlend mode="normal" in2="BackgroundImageFix" result="effect1_dropShadow_333_463"/>
<feBlend mode="normal" in="SourceGraphic" in2="effect1_dropShadow_333_463" result="shape"/>
</filter>
</defs>
</svg>
